<svg width="10" height="10" viewBox="0 0 10 10" fill="none" xmlns="http://www.w3.org/2000/svg">
<path d="M6.54433 8.7615L6.56585 9.11084L6.56585 9.11084L6.54433 8.7615ZM3.43322 3.1512L3.40686 3.5002C3.50173 3.50737 3.59544 3.4756 3.66639 3.41221C3.73735 3.34883 3.77944 3.25928 3.78298 3.1642L3.43322 3.1512ZM8.65859 6.87276L9.00329 6.93339L9.00329 6.93339L8.65859 6.87276ZM6.54433 8.7615L6.5228 8.41216C5.62406 8.46754 4.68475 8.5767 3.76713 8.47025C2.86745 8.36588 2.02815 8.05607 1.34516 7.29153L1.08414 7.52471L0.823124 7.75788C1.65166 8.68534 2.6701 9.04768 3.68646 9.16559C4.68488 9.28141 5.7199 9.16297 6.56585 9.11084L6.54433 8.7615ZM1.08414 7.52471L1.34516 7.29153C0.676636 6.54319 0.538878 5.53788 0.880383 4.7584C1.21215 4.00115 2.02625 3.39593 3.40686 3.5002L3.43322 3.1512L3.45958 2.80219C1.82136 2.67846 0.705163 3.41399 0.239219 4.4775C-0.216989 5.51878 -0.0198743 6.81423 0.823124 7.75788L1.08414 7.52471ZM6.54433 8.7615L6.56585 9.11084C6.86959 9.09212 7.19476 9.07102 7.48989 9.01111C7.78488 8.95122 8.08834 8.84567 8.32857 8.63106L8.09539 8.37005L7.86222 8.10903C7.75451 8.20525 7.59026 8.27645 7.35062 8.3251C7.11111 8.37373 6.83472 8.39294 6.5228 8.41216L6.54433 8.7615ZM8.65859 6.87276L9.00329 6.93339C9.15011 6.09865 9.38406 5.08348 9.38111 4.07837C9.37811 3.05519 9.13245 2.0025 8.30392 1.07504L8.04291 1.30821L7.78189 1.54139C8.46488 2.30593 8.67846 3.17472 8.68111 4.08042C8.68382 5.0042 8.46985 5.9253 8.31388 6.81214L8.65859 6.87276ZM8.04291 1.30821L8.30392 1.07504C7.46092 0.131383 6.19581 -0.209989 5.10988 0.126376C4.00077 0.469919 3.14452 1.49644 3.08346 3.13819L3.43322 3.1512L3.78298 3.1642C3.83443 1.78062 4.52726 1.03965 5.31699 0.795034C6.12989 0.54324 7.11337 0.793043 7.78189 1.54139L8.04291 1.30821ZM8.65859 6.87276L8.31388 6.81214C8.25974 7.11992 8.2096 7.39241 8.13439 7.62494C8.05913 7.8576 7.96993 8.01281 7.86222 8.10903L8.09539 8.37005L8.32857 8.63106C8.5688 8.41646 8.70777 8.12678 8.80041 7.84038C8.89309 7.55385 8.95058 7.2331 9.00329 6.93339L8.65859 6.87276Z" fill="#1E1E1E"/>
</svg>
